<svg id="Layer_1" data-name="Layer 1" xmlns="http://www.w3.org/2000/svg" viewBox="0 0 66 64"><path d="M33.12,0a32.79,32.79,0,0,0-10.42,64c1.65.3,2.25-.71,2.25-1.58s0-2.85-.05-5.58c-9.18,2-11.11-4.4-11.11-4.4-1.5-3.79-3.67-4.8-3.67-4.8-3-2,.23-2,.23-2,3.31.24,5.05,3.39,5.05,3.39,3,5,7.73,3.56,9.61,2.72a7,7,0,0,1,2.09-4.38c-7.32-.83-15-3.65-15-16.22a12.64,12.64,0,0,1,3.4-8.8,11.77,11.77,0,0,1,.32-8.69s2.77-.88,9.08,3.37a31.29,31.29,0,0,1,16.52,0c6.3-4.25,9.07-3.37,9.07-3.37a11.72,11.72,0,0,1,.32,8.69,12.59,12.59,0,0,1,3.4,8.8c0,12.6-7.72,15.38-15.07,16.19,1.18,1,2.24,3,2.24,6.08,0,4.38,0,7.92,0,9,0,.87.59,1.9,2.27,1.57A32.79,32.79,0,0,0,33.12,0Z" transform="translate(-0.13 0.05)" fill-rule="evenodd"/></svg>